<svg width="43" height="21" viewBox="0 0 43 21" fill="none" xmlns="http://www.w3.org/2000/svg">
<path d="M9.40254 6.68522C9.80973 6.54944 10.2441 6.47702 10.6947 6.47702C12.6673 6.47702 14.3141 7.87831 14.6906 9.74125L17.4866 9.17096C16.846 6.0063 14.0481 3.62376 10.6947 3.62376C9.92555 3.62376 9.189 3.74868 8.49768 3.98041L9.40254 6.68522Z" fill="#FFCB05"/>
<path d="M6.10343 15.7483L7.99459 13.6102C7.15126 12.8625 6.6192 11.7708 6.6192 10.5541C6.6192 9.33934 7.15126 8.24764 7.99459 7.50173L6.10343 5.36179C4.67012 6.63272 3.76526 8.48843 3.76526 10.5541C3.76526 12.6217 4.67012 14.4774 6.10343 15.7483" fill="#00A4E0"/>
<path d="M14.6906 11.3725C14.3123 13.2336 12.6673 14.6331 10.6965 14.6331C10.2441 14.6331 9.80792 14.5607 9.40254 14.4231L8.49768 17.1315C9.189 17.3614 9.92737 17.4863 10.6965 17.4863C14.0463 17.4863 16.8423 15.1074 17.4866 11.9464L14.6906 11.3725Z" fill="#EF4123"/>
<path d="M19.9316 13.6989C19.8393 13.5504 19.7162 13.3133 19.6402 13.1377C19.1968 12.1093 19.1769 11.0448 19.5497 10.0237C19.9605 8.90302 20.7459 8.04668 21.7612 7.60855C23.037 7.05998 24.4468 7.1668 25.6702 7.89279C26.4466 8.33816 26.9967 9.02613 27.4148 10.0001C27.4673 10.1251 27.5143 10.2572 27.5614 10.3713L19.9316 13.6989ZM22.4797 9.26149C21.573 9.65073 21.1061 10.5016 21.2038 11.4974L25.0404 9.84445C24.3799 9.06958 23.5221 8.8125 22.4797 9.26149V9.26149ZM25.5182 12.857C25.5164 12.857 25.5164 12.8588 25.5164 12.8588L25.4367 12.8045C25.2069 13.1757 24.8504 13.478 24.3998 13.6735C23.542 14.0465 22.7475 13.9505 22.1756 13.449L22.1231 13.5287C22.1231 13.5287 22.1231 13.5269 22.1213 13.5269L21.1477 14.9843C21.3902 15.1527 21.649 15.2939 21.9204 15.408C22.9954 15.8551 24.0957 15.8334 25.1798 15.3627C25.9634 15.0223 26.5787 14.5045 26.9985 13.8473L25.5182 12.857ZM30.2271 5.46498V13.5649L31.4867 14.0755L30.7718 15.7447L29.3819 15.1654C29.0707 15.0296 28.8571 14.8232 28.6979 14.5896C28.544 14.3525 28.43 14.0248 28.43 13.5866V5.46498H30.2271ZM33.4882 11.5028C33.4882 10.813 33.7941 10.1939 34.2755 9.77384L32.9833 8.33273C32.1074 9.1076 31.5554 10.2391 31.5554 11.4992C31.5536 12.7611 32.1056 13.8944 32.9797 14.6693L34.27 13.2282C33.7904 12.8063 33.4882 12.1908 33.4882 11.5028V11.5028ZM35.783 13.8003C35.5296 13.8003 35.2835 13.7568 35.0554 13.6808L34.4383 15.5148C34.86 15.656 35.3106 15.7338 35.7811 15.7338C37.8261 15.7356 39.5327 14.2837 39.929 12.3555L38.0324 11.9681C37.8171 13.0164 36.8923 13.8021 35.783 13.8003V13.8003ZM35.7884 7.27181C35.3197 7.27181 34.869 7.34785 34.4474 7.48725L35.0591 9.32304C35.2889 9.247 35.5332 9.20536 35.7866 9.20536C36.8977 9.20717 37.8243 9.99653 38.0343 11.0466L39.9308 10.6628C39.5418 8.73103 37.8352 7.27362 35.7884 7.27181V7.27181Z" fill="white"/>
</svg>
